# xmcd
#
# Track frame offsets:
#	180
#	12643
#	29714
#	41219
#	60671
#	73836
#	87837
#	95987
#	106801
#	122763
#
# Disc length: 1830 seconds
#
# Revision: 0
# Processed by: cddbd v1.4PL0 Copyright (c) Steve Scherf et al.
# Submitted via: EasyCDDAExtractor 5.0.0.0
#
DISCID=9207240a
DTITLE=Sonny - I Want To Sing You A Love Song
DYEAR=1900
DGENRE=Country
TTITLE0=I want to sing you a love song
TTITLE1=Let's Go To Bed Early
TTITLE2=Crazy
TTITLE3=Grandpa, Tell Us Bout The Good Ol Days
TTITLE4=Could I Have This Dance
TTITLE5=Honey Do
TTITLE6=Country Sunshine
TTITLE7=Sweet Nothin's
TTITLE8=Something To Talk About
TTITLE9=Take It Back
EXTD=
EXTT0=
EXTT1=
EXTT2=
EXTT3=
EXTT4=
EXTT5=
EXTT6=
EXTT7=
EXTT8=
EXTT9=
PLAYORDER=
